<svg xmlns="http://www.w3.org/2000/svg" viewBox="0 0 96 96"><rect width="96" height="96" rx="48" fill="#d5e5ee"/><path d="M21 45c0-24 11-36 27-36 18 0 28 13 28 37v29H20Z" fill="#201d1c"/><circle cx="48" cy="40" r="21" fill="#744c37"/><path d="M26 36c3-17 12-24 23-24 14 0 21 10 23 24-11-2-20-7-28-15-5 8-10 12-18 15Z" fill="#201d1c"/><path d="M14 96c4-24 17-35 34-35s30 11 34 35" fill="#487da2"/><circle cx="40" cy="41" r="2"/><circle cx="56" cy="41" r="2"/><path d="M41 51c5 4 10 4 15 0" fill="none" stroke="#4c2f24" stroke-width="2"/></svg>
