<svg xmlns="http://www.w3.org/2000/svg" width="1024" height="500" viewBox="0 0 1024 500">
  <defs>
    <linearGradient id="background" x1="0" y1="0" x2="1" y2="1">
      <stop offset="0" stop-color="#f8f3e9"/>
      <stop offset="1" stop-color="#e9e3d7"/>
    </linearGradient>
    <linearGradient id="wood" x1="0" y1="0" x2="1" y2="1">
      <stop offset="0" stop-color="#8b4b3d"/>
      <stop offset="1" stop-color="#563128"/>
    </linearGradient>
    <filter id="shadow" x="-30%" y="-30%" width="160%" height="160%">
      <feDropShadow dx="0" dy="14" stdDeviation="16" flood-color="#1e332b" flood-opacity=".18"/>
    </filter>
  </defs>
  <rect width="1024" height="500" fill="url(#background)"/>
  <circle cx="893" cy="50" r="235" fill="#315c4b" opacity=".08"/>
  <circle cx="76" cy="485" r="175" fill="#e7785c" opacity=".10"/>
  <g transform="translate(75 107)">
    <rect width="68" height="68" rx="18" fill="#315c4b"/>
    <g fill="#faf8f3"><rect x="15" y="14" width="10" height="40" rx="5"/><rect x="29" y="14" width="10" height="40" rx="5"/><rect x="43" y="14" width="10" height="40" rx="5"/></g>
    <circle cx="20" cy="25" r="2.6" fill="#e7785c"/><circle cx="48" cy="42" r="2.6" fill="#e7785c"/>
  </g>
  <text x="75" y="220" font-family="Arial, Helvetica, sans-serif" font-size="65" font-weight="800" letter-spacing="-2" fill="#202a26">Soufflet</text>
  <text x="75" y="267" font-family="Arial, Helvetica, sans-serif" font-size="26" font-weight="700" fill="#315c4b">Ton professeur d’accordéon diatonique</text>
  <text x="75" y="320" font-family="Arial, Helvetica, sans-serif" font-size="20" fill="#5d625f">Écoute · Joue · Progresse</text>
  <g transform="translate(560 82) rotate(-3 190 165)" filter="url(#shadow)">
    <rect x="0" y="32" width="112" height="276" rx="24" fill="url(#wood)" stroke="#442820" stroke-width="5"/>
    <rect x="268" y="32" width="112" height="276" rx="24" fill="url(#wood)" stroke="#442820" stroke-width="5"/>
    <rect x="108" y="44" width="164" height="252" rx="5" fill="#18231f"/>
    <g stroke="#d5cdbf" stroke-width="5">
      <path d="M119 48v244M133 48v244M147 48v244M161 48v244M175 48v244M189 48v244M203 48v244M217 48v244M231 48v244M245 48v244M259 48v244"/>
    </g>
    <g fill="#f7e6b5" stroke="#d4bd7d" stroke-width="2">
      <circle cx="301" cy="76" r="10"/><circle cx="334" cy="70" r="10"/>
      <circle cx="301" cy="107" r="10"/><circle cx="334" cy="101" r="10"/>
      <circle cx="301" cy="138" r="10"/><circle cx="334" cy="132" r="10"/>
      <circle cx="301" cy="169" r="10"/><circle cx="334" cy="163" r="10"/>
      <circle cx="301" cy="200" r="10"/><circle cx="334" cy="194" r="10"/>
      <circle cx="301" cy="231" r="10"/><circle cx="334" cy="225" r="10"/>
      <circle cx="301" cy="262" r="10"/><circle cx="334" cy="256" r="10"/>
      <circle cx="35" cy="93" r="11"/><circle cx="73" cy="93" r="11"/>
      <circle cx="35" cy="137" r="11"/><circle cx="73" cy="137" r="11"/>
      <circle cx="35" cy="181" r="11"/><circle cx="73" cy="181" r="11"/>
      <circle cx="35" cy="225" r="11"/><circle cx="73" cy="225" r="11"/>
    </g>
    <circle cx="334" cy="163" r="15" fill="#e7785c" opacity=".86"/>
  </g>
</svg>
